# xmcd
#
# Track frame offsets:
#	182
#	17477
#	30682
#	44532
#	62540
#	74517
#	91587
#	104872
#	118095
#	136697
#	146090
#	161740
#
# Disc length: 2405 seconds
#
# Revision: 7
# Processed by: cddbd v1.5.2PL0 Copyright (c) Steve Scherf et al.
# Submitted via: EZCDAudioConverter 6.0.4.1
#
DISCID=a709630c
DTITLE=C.W. McCall - Greatest Hits
DYEAR=1978
DGENRE=Country
TTITLE0=Convoy
TTITLE1=The Silverton
TTITLE2=Four Wheel Drive
TTITLE3=Wolf Creek Pass
TTITLE4=Classified
TTITLE5=There Won't Be No Country Music (There Won't Be No Rock 'N' Roll)
TTITLE6=Old Home Filler-Up An' Keep On A-Truckin' Cafe
TTITLE7=Crispy Critters
TTITLE8='Round The World With The Rubber Duck
TTITLE9=Black Bear Road
TTITLE10=Roses For Mama
TTITLE11=Aurora Borealis
EXTD=
EXTT0=
EXTT1=
EXTT2=
EXTT3=
EXTT4=
EXTT5=
EXTT6=
EXTT7=
EXTT8=
EXTT9=
EXTT10=
EXTT11=
PLAYORDER=
